# xmcd
#
# Track frame offsets: 
#        150
#        13431
#        24619
#        51765
#        71998
#        86320
#        102174
#        122852
#        144690
#        159813
#        170700
#        188784
#        199899
#        213382
#        238842
#        257001
#        288349
#
# Disc length: 4031 seconds
#
# Revision: 0
# Processed by: cddbd v1.5.2PL0 Copyright (c) Steve Scherf et al.
# Submitted via: ExactAudioCopy v1.3
#
DISCID=fe0fbd11
DTITLE=Paul Lamb and The King Snakes - Take Your Time And Get It Right
DYEAR=2000
DGENRE=Harmonica Blues, Electric Blues
TTITLE0=I'm a bluesman
TTITLE1=No Glue in the World
TTITLE2=Lend A Hand
TTITLE3=Crazy For Me
TTITLE4=Tuesday Blues
TTITLE5=Groovin'
TTITLE6=Looking Back
TTITLE7=Take Your Time
TTITLE8=Day's of Jive
TTITLE9=I'm Goin' Down
TTITLE10=Good Stuff
TTITLE11=Ain't That A Shame
TTITLE12=Money World
TTITLE13=I Don't Want
TTITLE14=There's Something Wrong
TTITLE15=Open Up
TTITLE16=Wheels
EXTD=
EXTT0=
EXTT1=
EXTT2=
EXTT3=
EXTT4=
EXTT5=
EXTT6=
EXTT7=
EXTT8=
EXTT9=
EXTT10=
EXTT11=
EXTT12=
EXTT13=
EXTT14=
EXTT15=
EXTT16=
PLAYORDER=
